<svg xmlns="http://www.w3.org/2000/svg" width="17.3" height="14.718" viewBox="0 0 17.3 14.718">
  <g id="ico" transform="translate(796.3 77.603)">
    <path id="union" d="M5.357,13.821.143,8.607a1.011,1.011,0,0,1-.089-.079L-1.007,7.467A1,1,0,0,1-1.3,6.755a1,1,0,0,1,.293-.713L.054,4.982A1.01,1.01,0,0,1,.143,4.9L5.357-.31a1,1,0,0,1,1.414,0L7.832.75a1,1,0,0,1,0,1.415L4.977,5.019H15a1,1,0,0,1,1,1v1.5a1,1,0,0,1-1,1H5l2.827,2.827a1,1,0,0,1,0,1.414L6.771,13.821a1,1,0,0,1-1.414,0Z" transform="translate(-795 -77)" fill="#454f63"/>
  </g>
</svg>
