<svg id="Group_1" data-name="Group 1" xmlns="http://www.w3.org/2000/svg" width="26.07" height="16.894" viewBox="0 0 26.07 16.894">
  <path id="Path_2" data-name="Path 2" d="M-15.5-26.667v2.1c0,3.759-.642,6.807-4.944,6.807H-31.075a2.624,2.624,0,0,1-2.782-2.431,30.814,30.814,0,0,0,0-6.807A6.392,6.392,0,0,0-35.7-30.766h-.285s-5.06-.038-5.282-.05a.365.365,0,0,1-.3-.241v-.8a.386.386,0,0,1,.4-.346c.386-.021,6.116,0,6.116,0a.647.647,0,0,1,.43.158c.143.16,3.294,5.049,3.294,5.049l15.588,0A.369.369,0,0,1-15.5-26.667Z" transform="translate(41.566 32.215)" fill="#fff"/>
  <ellipse id="Ellipse_1" data-name="Ellipse 1" cx="0.738" cy="1.083" rx="0.738" ry="1.083" transform="matrix(0.875, 0.485, -0.485, 0.875, 10.667, 14.284)" fill="#fff"/>
  <ellipse id="Ellipse_6" data-name="Ellipse 6" cx="0.738" cy="1.083" rx="0.738" ry="1.083" transform="matrix(0.875, 0.485, -0.485, 0.875, 19.923, 14.284)" fill="#fff"/>
</svg>
