<svg xmlns="http://www.w3.org/2000/svg" width="15" height="18" viewBox="0 0 15 18">
  <g id="Group_25" data-name="Group 25" transform="translate(-115 -91)">
    <g id="Ellipse_7" data-name="Ellipse 7" transform="translate(118 91)" fill="#fff" stroke="#454f63" stroke-width="2">
      <circle cx="4.5" cy="4.5" r="4.5" stroke="none"/>
      <circle cx="4.5" cy="4.5" r="3.5" fill="none"/>
    </g>
    <g id="Subtraction_3" data-name="Subtraction 3" transform="translate(115 100)" fill="#fff" stroke-linecap="round" stroke-linejoin="round">
      <path d="M 13.95005321502686 8 L 1.050243616104126 8 C 1.231202483177185 6.213455677032471 1.896118998527527 4.564622402191162 2.967470169067383 3.27905011177063 C 4.192240238189697 1.809380054473877 5.801810264587402 1 7.49970006942749 1 C 9.197780609130859 1 10.80755043029785 1.809360027313232 12.03246974945068 3.278980016708374 C 13.10402679443359 4.564594745635986 13.76907157897949 6.213456630706787 13.95005321502686 8 Z" stroke="none"/>
      <path d="M 12.77119541168213 7 C 12.49781513214111 5.840916156768799 11.98539924621582 4.784377574920654 11.26430988311768 3.91923999786377 C 10.23274993896484 2.681600093841553 8.895780563354492 2 7.49970006942749 2 C 6.103840351104736 2 4.767090320587158 2.681600093841553 3.735680103302002 3.91923999786377 C 3.01468563079834 4.78440523147583 2.502385377883911 5.840847015380859 2.229064226150513 7 L 12.77119541168213 7 M 15.00030040740967 9 L 14.99930000305176 9 L 2.037048290048915e-07 9 C 2.037048290048915e-07 4.036930084228516 3.364800214767456 0 7.49970006942749 0 C 11.63512992858887 0 14.99989032745361 4.036930084228516 15.00030040740967 8.99899959564209 L 15.00030040740967 9 Z" stroke="none" fill="#454f63"/>
    </g>
    <g id="Subtraction_4" data-name="Subtraction 4" transform="translate(115 100)" fill="#fff" stroke-linecap="round" stroke-linejoin="round">
      <path d="M 13.95005321502686 8 L 1.050243616104126 8 C 1.231202483177185 6.213455677032471 1.896118998527527 4.564622402191162 2.967470169067383 3.27905011177063 C 4.192240238189697 1.809380054473877 5.801810264587402 1 7.49970006942749 1 C 9.197780609130859 1 10.80755043029785 1.809360027313232 12.03246974945068 3.278980016708374 C 13.10402679443359 4.564594745635986 13.76907157897949 6.213456630706787 13.95005321502686 8 Z" stroke="none"/>
      <path d="M 12.77119541168213 7 C 12.49781513214111 5.840916156768799 11.98539924621582 4.784377574920654 11.26430988311768 3.91923999786377 C 10.23274993896484 2.681600093841553 8.895780563354492 2 7.49970006942749 2 C 6.103840351104736 2 4.767090320587158 2.681600093841553 3.735680103302002 3.91923999786377 C 3.01468563079834 4.78440523147583 2.502385377883911 5.840847015380859 2.229064226150513 7 L 12.77119541168213 7 M 15.00030040740967 9 L 14.99930000305176 9 L 2.037048290048915e-07 9 C 2.037048290048915e-07 4.036930084228516 3.364800214767456 0 7.49970006942749 0 C 11.63512992858887 0 14.99989032745361 4.036930084228516 15.00030040740967 8.99899959564209 L 15.00030040740967 9 Z" stroke="none" fill="#454f63"/>
    </g>
  </g>
</svg>
