<svg xmlns="http://www.w3.org/2000/svg" width="20" height="16.619" viewBox="0 0 20 16.619">
  <g id="Union_2" data-name="Union 2" transform="translate(0 1449)" fill="#fff">
    <path d="M 9.999917984008789 -1434.036499023438 L 3.077691793441772 -1439.896118164063 L 3.032209873199463 -1439.948974609375 L 2.953779935836792 -1440.017944335938 C 2.029879808425903 -1440.829711914063 1.49999988079071 -1442.000244140625 1.49999988079071 -1443.229248046875 C 1.49999988079071 -1445.584106445313 3.415069818496704 -1447.5 5.769000053405762 -1447.5 C 6.970419883728027 -1447.5 8.082340240478516 -1447.014404296875 8.899930000305176 -1446.132568359375 L 9.999899864196777 -1444.946044921875 L 11.09986972808838 -1446.132568359375 C 11.91745948791504 -1447.014404296875 13.02937984466553 -1447.5 14.23079967498779 -1447.5 C 16.58473014831543 -1447.5 18.49979972839355 -1445.584106445313 18.49979972839355 -1443.229248046875 C 18.49979972839355 -1442.001708984375 17.97085952758789 -1440.83203125 17.04861068725586 -1440.020141601563 L 16.96796989440918 -1439.94921875 L 16.92200660705566 -1439.895263671875 L 9.999917984008789 -1434.036499023438 Z" stroke="none"/>
    <path d="M 9.999980926513672 -1436.001708984375 L 15.85976314544678 -1440.96142578125 L 15.89622020721436 -1441.004150390625 L 16.0574893951416 -1441.146118164063 C 16.65633964538574 -1441.673217773438 16.99979972839355 -1442.432495117188 16.99979972839355 -1443.229248046875 C 16.99979972839355 -1444.757080078125 15.75762939453125 -1446 14.23079967498779 -1446 C 13.45162963867188 -1446 12.73036003112793 -1445.684936523438 12.19985008239746 -1445.112670898438 L 9.999899864196777 -1442.739868164063 L 7.799949645996094 -1445.112670898438 C 7.269439697265625 -1445.684936523438 6.54817008972168 -1446 5.769000053405762 -1446 C 4.242169857025146 -1446 2.999999761581421 -1444.757080078125 2.999999761581421 -1443.229248046875 C 2.999999761581421 -1442.431640625 3.344039916992188 -1441.671752929688 3.943909883499146 -1441.144653320313 L 4.100769996643066 -1441.0068359375 L 4.137176513671875 -1440.964599609375 L 9.999980926513672 -1436.001708984375 M 10.00024032592773 -1432.38134765625 C 9.770400047302246 -1432.38134765625 9.540450096130371 -1432.460327148438 9.353699684143066 -1432.618286132813 L 2.083499908447266 -1438.7724609375 C 2.03918981552124 -1438.809936523438 1.999269843101501 -1438.849731445313 1.963639855384827 -1438.89111328125 C 0.7599298357963562 -1439.948852539063 -1.358032193365943e-07 -1441.500244140625 -1.358032193365943e-07 -1443.229248046875 C -1.358032193365943e-07 -1446.416137695313 2.58299994468689 -1449 5.769000053405762 -1449 C 7.440299987792969 -1449 8.946000099182129 -1448.2890625 9.999899864196777 -1447.15234375 C 11.05379962921143 -1448.2890625 12.55949974060059 -1449 14.23079967498779 -1449 C 17.41679954528809 -1449 19.99979972839355 -1446.416137695313 19.99979972839355 -1443.229248046875 C 19.99979972839355 -1441.502075195313 19.24131965637207 -1439.952026367188 18.03973007202148 -1438.894287109375 C 18.00341033935547 -1438.851684570313 17.9626407623291 -1438.810913085938 17.91720008850098 -1438.7724609375 L 10.64610004425049 -1432.618286132813 C 10.45979976654053 -1432.460327148438 10.23007965087891 -1432.38134765625 10.00024032592773 -1432.38134765625 Z" stroke="none" fill="#fff"/>
  </g>
</svg>
