<svg xmlns="http://www.w3.org/2000/svg" width="428.604" height="309.128" viewBox="0 0 428.604 309.128">
  <g id="Group_4" data-name="Group 4" transform="translate(-459.102 -106.677)">
    <g id="Group_3" data-name="Group 3" transform="translate(588.558 109.063)">
      <g id="Subtraction_2" data-name="Subtraction 2" transform="translate(0 0)" fill="#2a2e43">
        <path d="M 147.4571838378906 226.2055969238281 L 0.6124279499053955 186.8587799072266 L 48.50425338745117 8.123251914978027 C 50.08378219604492 2.229692935943604 55.44284057617188 -1.886483669281006 61.53645706176758 -1.886483669281006 C 62.7127799987793 -1.886483669281006 63.89110565185547 -1.73060131072998 65.0386962890625 -1.423189520835876 L 185.8034057617188 30.93628120422363 C 189.2864227294922 31.86936950683594 192.1975402832031 34.10307693481445 194.0005187988281 37.22595596313477 C 195.8035430908203 40.34886932373047 196.2824554443359 43.98686981201172 195.3490142822266 47.46975326538086 L 147.4571838378906 226.2055969238281 Z" stroke="none"/>
        <path d="M 147.1036376953125 225.59326171875 L 194.8660430908203 47.34030914306641 C 195.7649230957031 43.98642730712891 195.3037567138672 40.48322296142578 193.5674896240234 37.47595596313477 C 191.8313140869141 34.46875 189.0280151367188 32.31777954101563 185.6739807128906 31.41922187805176 L 64.90930938720703 -0.9402189254760742 C 63.80389785766602 -1.236336588859558 62.66910552978516 -1.386483669281006 61.53645706176758 -1.386483669281006 C 55.66872406005859 -1.386483669281006 50.50828170776367 2.577310562133789 48.9871940612793 8.252663612365723 L 1.224774956703186 186.5052337646484 L 147.1036376953125 225.59326171875 M 147.8107452392578 226.8179931640625 L 4.619643368641846e-05 187.2123413085938 L 48.02128219604492 7.993839740753174 C 49.65930938720703 1.882075190544128 55.21695709228516 -2.386483669281006 61.53645706176758 -2.386483669281006 C 62.75648880004883 -2.386483669281006 63.97834014892578 -2.224865913391113 65.16807556152344 -1.906160116195679 L 185.9328155517578 30.45331001281738 C 189.5448150634766 31.42095756530762 192.5637817382813 33.7374267578125 194.4335174560547 36.97595596313477 C 196.3033447265625 40.21454620361328 196.7999877929688 43.98728179931641 195.8319549560547 47.59919357299805 L 147.8107452392578 226.8179626464844 L 147.8107299804688 226.8179626464844 L 147.8107452392578 226.8179931640625 Z" stroke="none" fill="#707070"/>
      </g>
      <g id="Group_2" data-name="Group 2" transform="translate(92.9 12.951)">
        <g id="Rectangle_3" data-name="Rectangle 3" transform="matrix(0.966, 0.259, -0.259, 0.966, 2.009, 0)" fill="#fff" stroke="#707070" stroke-width="1">
          <rect width="59.879" height="7.762" rx="3.881" stroke="none"/>
          <rect x="0.5" y="0.5" width="58.879" height="6.762" rx="3.381" fill="none"/>
        </g>
      </g>
      <path id="Subtraction_1" data-name="Subtraction 1" d="M137.1,203.6h0L0,166.861,42.568,7.994a13.986,13.986,0,0,1,17.147-9.9L169.769,27.583a14,14,0,0,1,9.9,17.146L137.1,203.6Z" transform="translate(5.356 21.786)" fill="#fff"/>
    </g>
    <path id="Path_1" data-name="Path 1" d="M1765.972,483.838s-94.08,26.251-224.174-29.127,69.58-121.436,69.58-121.436-244.766,54.733-138.564,148.744c8.373,7.412,45.122,34.3,94.022,50.012,55.22,17.742,123.675,24.19,139.321,27.746C1850.752,546.773,1765.972,483.838,1765.972,483.838Z" transform="translate(-987 -175.942)" fill="#ff5e5e"/>
    <g id="Group_1" data-name="Group 1" transform="translate(622.941 244.226)">
      <path id="Path_2" data-name="Path 2" d="M223.2,24.129V45.451c0,38.179-6.518,69.129-50.209,69.129H64.98c-15.6,0-28.254-11.054-28.254-24.689,0,0,4.674-42.281,0-69.129S18.031-17.5,18.031-17.5H15.138s-51.385-.387-53.645-.5a3.708,3.708,0,0,1-3.06-2.445v-8.159s.167-3.293,4.092-3.511,62.114,0,62.114,0,2.919-.027,4.369,1.6S62.467,20.762,62.467,20.762l19.855,0,138.453.016A3.746,3.746,0,0,1,223.2,24.129Z" transform="translate(41.566 32.215)" fill="#3497fd"/>
      <ellipse id="Ellipse_1" data-name="Ellipse 1" cx="7.5" cy="11" rx="7.5" ry="11" transform="matrix(0.875, 0.485, -0.485, 0.875, 108.332, 145.065)" fill="#3497fd"/>
      <ellipse id="Ellipse_6" data-name="Ellipse 6" cx="7.5" cy="11" rx="7.5" ry="11" transform="matrix(0.875, 0.485, -0.485, 0.875, 202.332, 145.065)" fill="#3497fd"/>
    </g>
    <path id="Path_3" data-name="Path 3" d="M385.724,300.777s-65.477.616-119.721-17.543-97.254-55.09-97.254-55.09,48.935,31.392,103.717,44.011,115.412,6.463,115.412,6.463-61.169-6.463-95.715-16.927-42.472-24.929-42.472-24.929S268.081,248.2,302.935,254s86.175,5.943,86.175,5.943Z" transform="translate(350.95 67.654)" fill="none"/>
    <text id="PocketPal" transform="translate(626.741 202.353) rotate(14)" fill="#2a2e43" font-size="28" font-family="Gibson-SemiBold, Gibson" font-weight="600"><tspan x="0" y="0">PocketPal</tspan></text>
  </g>
</svg>
