<svg xmlns="http://www.w3.org/2000/svg" width="24" height="24" viewBox="0 0 24 24">
  <g id="Group_6" data-name="Group 6" transform="translate(-331 -47)">
    <path id="star" d="M23.963,9.468A.7.7,0,0,0,23.4,9l-7.45-1.132L12.636.739a.731.731,0,0,0-1.273,0L8.046,7.863.6,9a.7.7,0,0,0-.4,1.187L5.623,15.7,4.352,23.55a.7.7,0,0,0,1.034.73L12,20.619l6.613,3.66a.7.7,0,0,0,1.034-.73L18.376,15.7,23.8,10.183A.7.7,0,0,0,23.963,9.468Z" transform="translate(331 46.632)" fill="#464e63"/>
    <path id="star-2" data-name="star" d="M11.363.739c-.183.356-3.317,7.124-3.317,7.124L.6,9a.7.7,0,0,0-.4,1.187L5.623,15.7,4.352,23.55a.7.7,0,0,0,1.034.73L12,20.619,11.843.368A.627.627,0,0,0,11.363.739Z" transform="translate(331 46.632)" fill="#ffb900"/>
  </g>
</svg>
